<svg width="139" height="51" viewBox="0 0 139 51" fill="none" xmlns="http://www.w3.org/2000/svg">
<path d="M0 50.936V14.2621H8.48739V44.0203H26.8767V50.936H0Z" fill="white"/>
<path d="M32.2428 50.936L48.5888 14.2621H56.9715L73.3699 50.936H64.4634L51.0512 18.5582H54.4043L40.9397 50.936H32.2428ZM40.4158 43.0773L42.6686 36.6332H61.5295L63.8347 43.0773H40.4158Z" fill="white"/>
<path d="M82.414 50.936V14.2621H100.332C104.942 14.2621 108.4 15.1353 110.705 16.8816C113.045 18.628 114.216 20.9332 114.216 23.7973C114.216 25.7183 113.744 27.3948 112.801 28.8269C111.858 30.224 110.566 31.3067 108.924 32.0751C107.282 32.8435 105.396 33.2277 103.266 33.2277L104.261 31.0797C106.566 31.0797 108.61 31.4639 110.391 32.2323C112.172 32.9658 113.552 34.066 114.53 35.533C115.543 36.9999 116.049 38.7987 116.049 40.9293C116.049 44.0727 114.809 46.5351 112.329 48.3164C109.85 50.0628 106.2 50.936 101.38 50.936H82.414ZM90.849 44.5443H100.751C102.951 44.5443 104.61 44.195 105.728 43.4964C106.881 42.7629 107.457 41.6103 107.457 40.0386C107.457 38.5018 106.881 37.3666 105.728 36.6332C104.61 35.8648 102.951 35.4806 100.751 35.4806H90.2203V29.2984H99.284C101.345 29.2984 102.916 28.9491 103.999 28.2506C105.117 27.5171 105.676 26.4169 105.676 24.9499C105.676 23.5179 105.117 22.4526 103.999 21.754C102.916 21.0206 101.345 20.6538 99.284 20.6538H90.849V44.5443Z" fill="white"/>
<path fill-rule="evenodd" clip-rule="evenodd" d="M129.177 19.6467C134.602 19.6467 139 15.2487 139 9.82337C139 4.39807 134.602 0 129.177 0C123.751 0 119.353 4.39807 119.353 9.82337C119.353 15.2487 123.751 19.6467 129.177 19.6467ZM129.177 14.0334C131.502 14.0334 133.387 12.1485 133.387 9.82337C133.387 7.49824 131.502 5.61336 129.177 5.61336C126.852 5.61336 124.967 7.49824 124.967 9.82337C124.967 12.1485 126.852 14.0334 129.177 14.0334Z" fill="#FF4034"/>
</svg>
